<svg width="214" height="212" viewBox="0 0 214 212" fill="none" xmlns="http://www.w3.org/2000/svg">
<g clip-path="url(#clip0_5_616)">
<path d="M89.0497 77.8083C89.4092 80.6845 89.6189 84.04 89.6789 87.8749C89.7388 91.6499 89.6789 95.4847 89.4991 99.3795C89.3793 103.214 89.1096 106.87 88.6902 110.345C88.2707 113.76 87.7614 116.517 87.1622 118.614C86.7428 119.872 86.2335 121.19 85.6343 122.569C85.095 123.887 84.4958 125.085 83.8367 126.164C82.8779 127.782 81.7095 129.22 80.3313 130.478C78.9532 131.676 77.4252 132.725 75.7475 133.624C74.1296 134.463 72.3919 135.122 70.5344 135.601C68.7368 136.081 66.9392 136.35 65.1416 136.41C61.9659 136.53 58.9399 136.081 56.0637 135.062C53.2475 133.983 50.641 132.306 48.2442 130.029C46.4466 128.291 45.0085 126.433 43.9299 124.456C42.8514 122.479 42.0125 120.411 41.4133 118.254C40.8141 116.037 40.4246 113.76 40.2448 111.423C40.125 109.087 40.0651 106.69 40.0651 104.233C40.0651 103.095 40.0351 101.686 39.9752 100.009C39.9752 98.271 39.9752 96.5034 39.9752 94.7058C39.9752 92.8483 39.9752 91.0507 39.9752 89.313C39.9752 87.5753 40.0052 86.1073 40.0651 84.9089C40.0651 84.1299 40.0651 83.291 40.0651 82.3922C40.0651 81.4335 40.095 80.5047 40.155 79.6059C40.2748 78.6472 40.4546 77.7484 40.6942 76.9095C40.9339 76.0107 41.2934 75.2018 41.7728 74.4828C42.3121 73.7038 43.0611 73.1346 44.0198 72.7751C44.9785 72.4155 45.9672 72.2358 46.9858 72.2358C48.0644 72.2358 49.083 72.4455 50.0418 72.8649C51.0005 73.2844 51.7794 73.8836 52.3786 74.6625C52.6782 75.1419 52.888 75.6213 53.0078 76.1006C53.1276 76.58 53.2175 77.1193 53.2774 77.7185C53.3973 79.6958 53.4572 81.9428 53.4572 84.4595C53.5171 86.9761 53.5171 89.4328 53.4572 91.8296C53.4572 94.1665 53.4272 96.3236 53.3673 98.301C53.3074 100.278 53.2774 101.746 53.2774 102.705C53.2774 106.3 53.4572 109.566 53.8167 112.502C54.1762 115.378 55.0151 117.775 56.3334 119.692C57.5318 121.43 58.9399 122.539 60.5577 123.018C62.1756 123.497 63.7934 123.647 65.4113 123.467C66.9093 123.288 68.4073 122.748 69.9053 121.85C71.4632 120.891 72.6915 119.513 73.5903 117.715C73.9499 117.056 74.2495 116.307 74.4891 115.468C74.7288 114.629 74.9086 113.85 75.0284 113.131C75.2681 110.854 75.4778 108.218 75.6576 105.222C75.8373 102.166 75.9871 99.05 76.107 95.8742C76.2268 92.6985 76.2867 89.5826 76.2867 86.5267C76.2867 83.4708 76.2568 80.7145 76.1969 78.2577C76.3167 77.1792 76.6463 76.1905 77.1855 75.2917C77.6649 74.5127 78.354 73.8237 79.2528 73.2245C80.1516 72.6253 81.3799 72.3257 82.9379 72.3257C84.1962 72.3856 85.2148 72.7151 85.9938 73.3143C86.7727 73.8536 87.4019 74.4528 87.8813 75.1119C88.4205 75.8909 88.81 76.7897 89.0497 77.8083Z" fill="url(#paint0_linear_5_616)"/>
<path d="M96.1385 76.3853C96.1385 75.9966 96.2357 75.6403 96.43 75.3164C96.6244 74.9708 96.8943 74.6793 97.2399 74.4418C97.5854 74.1826 97.9849 73.9775 98.4384 73.8263C98.9135 73.6751 99.4102 73.5996 99.9284 73.5996C100.943 73.5996 101.688 73.7615 102.164 74.0855C102.639 74.4094 102.93 74.9169 103.038 75.6079C103.405 78.48 103.708 81.201 103.945 83.7708C104.204 86.3191 104.409 88.7593 104.561 91.0916C104.712 93.4022 104.82 95.6265 104.885 97.7644C104.949 99.8807 104.982 101.932 104.982 103.919C104.982 104.999 104.593 105.809 103.816 106.348C103.06 106.888 101.948 107.158 100.479 107.158C99.8097 107.158 99.2806 106.996 98.8919 106.672C98.5248 106.37 98.3412 105.917 98.3412 105.312C98.3412 101.598 98.2224 98.1207 97.9849 94.8815C97.7689 91.6206 97.5206 88.7269 97.2399 86.2003C96.9591 83.6737 96.7 81.5681 96.4624 79.8837C96.2465 78.1777 96.1385 77.0116 96.1385 76.3853ZM121.372 105.992C120.897 107.137 120.174 107.709 119.202 107.709C118.813 107.709 118.371 107.601 117.874 107.385L116.999 106.964C115.941 106.446 115.412 105.722 115.412 104.794C115.412 104.319 115.498 103.876 115.671 103.466C116.341 101.889 117.064 100.259 117.842 98.5742C118.619 96.8682 119.44 95.1298 120.303 93.359C120.368 93.1863 120.433 93.0243 120.498 92.8732C120.563 92.722 120.595 92.5816 120.595 92.452C120.595 91.9338 120.325 91.4695 119.785 91.0592C117.971 89.6987 116.168 88.3382 114.376 86.9777C112.605 85.5956 110.802 84.2351 108.966 82.8962C108.167 82.3348 107.767 81.6869 107.767 80.9527C107.767 80.6503 107.821 80.3588 107.929 80.0781C108.037 79.7757 108.232 79.4734 108.512 79.1711L109.419 78.1021C110.046 77.3679 110.737 77.0008 111.493 77.0008C111.752 77.0008 112.011 77.0656 112.27 77.1951C112.551 77.3031 112.842 77.4543 113.145 77.6486C114.743 78.8148 116.319 79.9809 117.874 81.147C119.45 82.2916 121.016 83.4685 122.571 84.6778C122.765 84.8074 122.949 84.9154 123.122 85.0018C123.294 85.0881 123.467 85.1313 123.64 85.1313C124.115 85.1313 124.536 84.829 124.903 84.2243C125.94 82.216 127.009 80.2292 128.11 78.2641C129.211 76.2989 130.345 74.3662 131.511 72.4658C132.094 71.5804 132.785 71.1377 133.584 71.1377C134.038 71.1377 134.567 71.3213 135.172 71.6884L135.69 72.0123C136.575 72.5954 137.018 73.2756 137.018 74.0531C137.018 74.3338 136.975 74.6145 136.888 74.8953C136.802 75.1544 136.672 75.4351 136.5 75.7375C135.226 77.7674 134.016 79.8189 132.872 81.8921C131.727 83.9652 130.615 86.0707 129.535 88.2086C129.47 88.3814 129.406 88.5325 129.341 88.6621C129.298 88.7917 129.276 88.9213 129.276 89.0508C129.276 89.5907 129.535 90.055 130.054 90.4437C132.559 92.3873 135.042 94.3416 137.504 96.3068C139.966 98.2503 142.438 100.172 144.922 102.073C145.678 102.656 146.055 103.293 146.055 103.984C146.055 104.632 145.721 105.247 145.051 105.83L143.918 106.834C143.291 107.417 142.654 107.709 142.006 107.709C141.423 107.709 140.829 107.461 140.225 106.964L127.397 96.9546C127.203 96.825 127.019 96.7171 126.847 96.6307C126.696 96.5443 126.534 96.5011 126.361 96.5011C125.843 96.5011 125.421 96.825 125.097 97.4729L121.372 105.992Z" fill="#B6158A"/>
<path d="M115.773 129.608C116.089 130.311 116.101 131.003 115.81 131.682C115.519 132.337 115.058 132.943 114.427 133.501C113.797 134.059 113.069 134.544 112.245 134.956C111.444 135.368 110.68 135.659 109.953 135.829C109.152 135.999 108.303 136.072 107.406 136.047C106.533 136.047 105.648 135.938 104.75 135.72C103.877 135.526 103.016 135.235 102.167 134.847C101.343 134.435 100.579 133.937 99.8754 133.355C99.0265 132.652 98.3596 131.815 97.8745 130.845C97.4137 129.851 97.0741 128.796 96.8559 127.68C96.6376 126.564 96.5163 125.449 96.4921 124.333C96.4921 123.193 96.5284 122.126 96.6012 121.132C96.674 120.234 96.8559 119.3 97.1469 118.33C97.4379 117.36 97.8381 116.414 98.3474 115.493C98.881 114.547 99.5116 113.674 100.239 112.873C100.991 112.073 101.864 111.394 102.859 110.836C103.61 110.4 104.447 110.108 105.369 109.963C106.315 109.793 107.261 109.757 108.206 109.854C109.177 109.927 110.086 110.133 110.935 110.472C111.808 110.788 112.548 111.224 113.154 111.782C113.542 112.121 113.942 112.594 114.355 113.201C114.791 113.807 115.107 114.426 115.301 115.056C115.495 115.687 115.495 116.281 115.301 116.839C115.131 117.372 114.646 117.736 113.845 117.93C113.506 118.027 113.203 118.051 112.936 118.003C112.669 117.93 112.427 117.821 112.208 117.676C111.99 117.506 111.784 117.312 111.59 117.093C111.396 116.875 111.214 116.657 111.044 116.439C110.462 115.735 109.783 115.262 109.007 115.02C108.231 114.753 107.455 114.692 106.678 114.838C105.927 114.959 105.211 115.274 104.532 115.784C103.877 116.269 103.368 116.899 103.004 117.676C102.616 118.5 102.301 119.41 102.058 120.404C101.84 121.374 101.719 122.369 101.694 123.387C101.67 124.382 101.755 125.352 101.949 126.298C102.167 127.243 102.531 128.08 103.04 128.808C103.429 129.39 103.901 129.863 104.459 130.227C105.041 130.59 105.66 130.845 106.315 130.991C106.97 131.136 107.624 131.16 108.279 131.063C108.958 130.966 109.613 130.748 110.244 130.409C110.438 130.311 110.644 130.178 110.862 130.008C111.105 129.814 111.347 129.62 111.59 129.426C111.832 129.232 112.075 129.05 112.317 128.881C112.584 128.711 112.863 128.59 113.154 128.517C113.591 128.371 114.064 128.383 114.573 128.553C115.107 128.723 115.507 129.075 115.773 129.608ZM123.783 132.81C123.759 132.931 123.735 133.052 123.71 133.173C123.71 133.27 123.71 133.38 123.71 133.501L123.492 134.265C123.443 134.362 123.407 134.422 123.383 134.447L123.274 134.665C123.152 134.932 122.934 135.15 122.619 135.32C122.037 135.611 121.418 135.684 120.764 135.538C120.351 135.49 120.024 135.368 119.781 135.174C119.539 135.005 119.369 134.798 119.272 134.556C119.175 134.313 119.102 134.071 119.054 133.828C118.981 133.586 118.945 133.367 118.945 133.173V112.801C118.945 112.631 118.945 112.485 118.945 112.364C118.969 112.219 118.993 112.085 119.017 111.964C119.042 111.794 119.066 111.649 119.09 111.527C119.139 111.406 119.187 111.273 119.236 111.127C119.308 110.885 119.442 110.691 119.636 110.545C119.927 110.327 120.206 110.205 120.472 110.181C120.642 110.133 120.8 110.108 120.945 110.108C121.091 110.084 121.261 110.072 121.455 110.072C121.794 110.072 122.182 110.169 122.619 110.363C122.958 110.557 123.201 110.824 123.346 111.163C123.589 111.649 123.71 112.097 123.71 112.51C123.735 112.752 123.747 113.116 123.747 113.601C123.771 114.086 123.783 114.45 123.783 114.692V114.838C123.832 115.614 123.856 116.366 123.856 117.093C123.856 117.797 123.844 118.573 123.819 119.422C123.819 120.246 123.807 121.047 123.783 121.823C123.783 122.575 123.783 123.327 123.783 124.078V131.718C123.783 131.815 123.783 131.912 123.783 132.009C123.807 132.082 123.819 132.167 123.819 132.264C123.819 132.506 123.807 132.688 123.783 132.81ZM131.017 120.404C131.745 120.04 132.509 119.786 133.309 119.64C134.109 119.47 134.898 119.434 135.674 119.531C136.474 119.604 137.238 119.81 137.966 120.149C138.693 120.465 139.372 120.925 140.003 121.532C140.633 122.162 141.118 122.854 141.458 123.605C141.798 124.357 142.04 125.194 142.186 126.116C142.283 126.746 142.44 127.328 142.659 127.862C142.877 128.395 143.107 128.929 143.35 129.463C143.617 129.996 143.859 130.53 144.077 131.063C144.32 131.597 144.514 132.155 144.659 132.737C144.781 133.295 144.732 133.84 144.514 134.374C144.32 134.883 143.908 135.199 143.277 135.32C142.913 135.393 142.562 135.368 142.222 135.247C141.907 135.102 141.616 134.908 141.349 134.665C141.082 134.398 140.84 134.119 140.621 133.828C140.427 133.513 140.245 133.222 140.076 132.955C139.518 133.683 138.911 134.253 138.257 134.665C137.602 135.053 136.814 135.308 135.892 135.429C135.116 135.526 134.376 135.55 133.673 135.502C132.969 135.453 132.218 135.32 131.417 135.102C130.374 134.835 129.513 134.374 128.834 133.719C128.179 133.04 127.67 132.264 127.306 131.391C126.967 130.493 126.785 129.535 126.761 128.517C126.736 127.498 126.858 126.492 127.124 125.497C127.464 124.188 127.973 123.12 128.652 122.296C129.331 121.471 130.12 120.841 131.017 120.404ZM131.926 124.66C131.587 125 131.32 125.4 131.126 125.861C130.932 126.322 130.811 126.807 130.762 127.316C130.738 127.826 130.787 128.335 130.908 128.844C131.029 129.353 131.223 129.802 131.49 130.19C131.732 130.53 132.145 130.821 132.727 131.063C133.309 131.282 133.915 131.415 134.546 131.464C135.273 131.512 135.904 131.318 136.438 130.881C136.995 130.445 137.408 129.899 137.675 129.244C137.966 128.565 138.099 127.85 138.075 127.098C138.05 126.322 137.844 125.618 137.456 124.988C137.165 124.527 136.777 124.188 136.292 123.969C135.831 123.751 135.334 123.642 134.8 123.642C134.267 123.618 133.733 123.702 133.2 123.896C132.69 124.066 132.266 124.321 131.926 124.66ZM156.381 129.317C155.92 129.026 155.399 128.796 154.817 128.626C154.259 128.456 153.677 128.298 153.07 128.153C152.488 128.007 151.918 127.85 151.361 127.68C150.803 127.486 150.293 127.219 149.833 126.88C148.838 126.128 148.256 125.206 148.086 124.115C147.941 122.999 148.183 121.883 148.814 120.768C149.153 120.186 149.602 119.713 150.16 119.349C150.718 118.961 151.324 118.67 151.979 118.476C152.658 118.258 153.349 118.136 154.053 118.112C154.756 118.088 155.423 118.124 156.054 118.221C156.466 118.294 156.902 118.403 157.363 118.549C157.824 118.67 158.248 118.84 158.637 119.058C159.049 119.276 159.413 119.555 159.728 119.895C160.067 120.21 160.31 120.61 160.456 121.095C160.553 121.411 160.565 121.714 160.492 122.005C160.443 122.296 160.322 122.538 160.128 122.732C159.958 122.926 159.728 123.072 159.437 123.169C159.17 123.266 158.879 123.29 158.564 123.242C158.2 123.169 157.86 123.06 157.545 122.914C157.23 122.769 156.915 122.611 156.599 122.441C156.284 122.272 155.957 122.126 155.617 122.005C155.302 121.883 154.962 121.823 154.598 121.823C154.04 121.799 153.58 121.896 153.216 122.114C152.852 122.332 152.597 122.599 152.452 122.914C152.331 123.23 152.343 123.569 152.488 123.933C152.658 124.297 152.998 124.612 153.507 124.879C153.968 125.121 154.477 125.315 155.035 125.461C155.593 125.606 156.138 125.752 156.672 125.897C157.23 126.043 157.763 126.213 158.273 126.407C158.806 126.601 159.279 126.868 159.692 127.207C160.492 127.862 160.977 128.626 161.147 129.499C161.341 130.372 161.292 131.233 161.001 132.082C160.71 132.931 160.201 133.683 159.473 134.338C158.77 134.992 157.933 135.429 156.963 135.647C156.26 135.793 155.496 135.866 154.671 135.866C153.871 135.866 153.07 135.781 152.27 135.611C151.494 135.441 150.742 135.174 150.014 134.81C149.311 134.447 148.717 133.986 148.232 133.428C147.892 133.04 147.71 132.603 147.686 132.118C147.686 131.609 147.783 131.172 147.977 130.809C148.195 130.421 148.499 130.154 148.887 130.008C149.275 129.863 149.711 129.948 150.196 130.263C150.584 130.53 151.045 130.797 151.579 131.063C152.112 131.306 152.646 131.5 153.18 131.645C153.713 131.791 154.222 131.864 154.707 131.864C155.217 131.864 155.653 131.755 156.017 131.536C156.551 131.197 156.83 130.809 156.854 130.372C156.878 129.911 156.72 129.56 156.381 129.317ZM172.901 129.317C172.44 129.026 171.919 128.796 171.337 128.626C170.779 128.456 170.197 128.298 169.591 128.153C169.009 128.007 168.439 127.85 167.881 127.68C167.323 127.486 166.814 127.219 166.353 126.88C165.358 126.128 164.776 125.206 164.607 124.115C164.461 122.999 164.704 121.883 165.334 120.768C165.674 120.186 166.122 119.713 166.68 119.349C167.238 118.961 167.844 118.67 168.499 118.476C169.178 118.258 169.869 118.136 170.573 118.112C171.276 118.088 171.943 118.124 172.574 118.221C172.986 118.294 173.423 118.403 173.883 118.549C174.344 118.67 174.769 118.84 175.157 119.058C175.569 119.276 175.933 119.555 176.248 119.895C176.588 120.21 176.83 120.61 176.976 121.095C177.073 121.411 177.085 121.714 177.012 122.005C176.964 122.296 176.842 122.538 176.648 122.732C176.479 122.926 176.248 123.072 175.957 123.169C175.69 123.266 175.399 123.29 175.084 123.242C174.72 123.169 174.381 123.06 174.065 122.914C173.75 122.769 173.435 122.611 173.119 122.441C172.804 122.272 172.477 122.126 172.137 122.005C171.822 121.883 171.482 121.823 171.119 121.823C170.561 121.799 170.1 121.896 169.736 122.114C169.372 122.332 169.118 122.599 168.972 122.914C168.851 123.23 168.863 123.569 169.009 123.933C169.178 124.297 169.518 124.612 170.027 124.879C170.488 125.121 170.997 125.315 171.555 125.461C172.113 125.606 172.659 125.752 173.192 125.897C173.75 126.043 174.284 126.213 174.793 126.407C175.327 126.601 175.799 126.868 176.212 127.207C177.012 127.862 177.497 128.626 177.667 129.499C177.861 130.372 177.812 131.233 177.521 132.082C177.23 132.931 176.721 133.683 175.993 134.338C175.29 134.992 174.453 135.429 173.483 135.647C172.78 135.793 172.016 135.866 171.191 135.866C170.391 135.866 169.591 135.781 168.79 135.611C168.014 135.441 167.262 135.174 166.535 134.81C165.831 134.447 165.237 133.986 164.752 133.428C164.412 133.04 164.231 132.603 164.206 132.118C164.206 131.609 164.303 131.172 164.497 130.809C164.716 130.421 165.019 130.154 165.407 130.008C165.795 129.863 166.231 129.948 166.717 130.263C167.105 130.53 167.565 130.797 168.099 131.063C168.633 131.306 169.166 131.5 169.7 131.645C170.233 131.791 170.743 131.864 171.228 131.864C171.737 131.864 172.174 131.755 172.537 131.536C173.071 131.197 173.35 130.809 173.374 130.372C173.398 129.911 173.241 129.56 172.901 129.317Z" fill="#4E0189"/>
</g>
<defs>
<linearGradient id="paint0_linear_5_616" x1="105.93" y1="53.5" x2="105.93" y2="169.06" gradientUnits="userSpaceOnUse">
<stop stop-color="#200177"/>
<stop offset="1" stop-color="#010031"/>
</linearGradient>
<clipPath id="clip0_5_616">
<rect width="214" height="211.401" fill="white"/>
</clipPath>
</defs>
</svg>
